<svg xmlns="http://www.w3.org/2000/svg" width="30px" height="30px" viewBox="0 0 512 512">
    <g>
        <path
            d="M497,482h-16V135c0-8.284-6.716-15-15-15h-60c-8.284,0-15,6.716-15,15v347h-30V195c0-8.284-6.716-15-15-15h-60 c-8.284,0-15,6.716-15,15v287h-30V285c0-8.284-6.716-15-15-15h-60c-8.284,0-15,6.716-15,15v197h-30V375c0-8.284-6.716-15-15-15H46 c-8.284,0-15,6.716-15,15v107H15c-8.284,0-15,6.716-15,15s6.716,15,15,15h482c8.284,0,15-6.716,15-15S505.284,482,497,482z M421,150h30v332h-30V150z M301,210h30v272h-30V210z M181,300h30v182h-30V300z M61,390h30v92H61V390z"
            data-original="#000000" class="active-path" data-old_color="#000000" fill="#FFFFFF"></path>
        <path d="M75,30h121c8.284,0,15-6.716,15-15s-6.716-15-15-15H75c-8.284,0-15,6.716-15,15S66.716,30,75,30z"
            data-original="#000000" class="active-path" data-old_color="#000000" fill="#FFFFFF"></path>
        <circle cx="15" cy="15" r="15" data-original="#000000" class="active-path" data-old_color="#000000" fill="#FFFFFF">
        </circle>
        <path d="M75,90h121c8.284,0,15-6.716,15-15s-6.716-15-15-15H75c-8.284,0-15,6.716-15,15S66.716,90,75,90z"
            data-original="#000000" class="active-path" data-old_color="#000000" fill="#FFFFFF"></path>
        <circle cx="15" cy="75" r="15" data-original="#000000" class="active-path" data-old_color="#000000" fill="#FFFFFF">
        </circle>
        <path d="M75,150h121c8.284,0,15-6.716,15-15s-6.716-15-15-15H75c-8.284,0-15,6.716-15,15S66.716,150,75,150z"
            data-original="#000000" class="active-path" data-old_color="#000000" fill="#FFFFFF"></path>
        <circle cx="15" cy="135" r="15" data-original="#000000" class="active-path" data-old_color="#000000" fill="#FFFFFF">
        </circle>
    </g>
</svg>


